<svg id="Layer_1" data-name="Layer 1" xmlns="http://www.w3.org/2000/svg" viewBox="0 0 1139.6 164.5"><defs><style>.cls-1{fill:none;}.cls-1,.cls-2{stroke:#000;stroke-miterlimit:10;}.cls-2,.cls-3{fill:#fff;}.cls-3{font-size:52.63px;font-family:AgencyFB-Reg, Agency FB;}</style></defs><path class="cls-1" d="M676.5,274.5" transform="translate(-184.3 -334)"/><path class="cls-2" d="M404.5,335.5a7.5,7.5,0,0,1,2.6,3v.8h-1.2V341h1.9l.2,2.2-1,.8,2.2,1v3.1l-.6.6-.7.5h-1.1l.5.5-.5.8v3.3l.2,1.1-.2,1H406v.8l-.2.5h-1.8l-1.5-1-.9-.8s-.6-.7-.6-.2a7.1,7.1,0,0,1-1.1,2l-.4.8-.9.9v1.7l-1.4,1v1l-1.5.8-.6,1.3-.9.9-.6,1.3-.9,1.2-1.2,1-.6,1.3-.5,1.2-.9.7-.6.5-1.2,1.3-.9,1.2-.9,1.3v2.1l.9.9,1.2.7.3.5-.6.5h-2.9l-1.7-.5-2.5-.6v-.5l1.3-1.1,1.2-1.3.3-1s.6-1.5.9-2a4.7,4.7,0,0,0,.6-1.5l.9-2,.6-1.4.6-1.3.9-1,.6-.2.6-.5.6-1-.6-1.5-.6-1.3v-.4l-.5-1.3-.3-.5-1.2.5-.9.7-1.5.8-1.2-1.3-1.2.3-1-.4.7-.6,1.8-.2,1.2-1,1.5-.8.6-1,1.2-1,1.5-2,.6-.2.7-1v-1.5l-.7.2h-5l-.9-.5.3-1,.9-.9.9-1,.8-.4.4-.6.3-.5.9-.5.6-1,.6-.5v-1.8l.3-.5.6-.7,1.4-1,.6-.5.6-.3.9.3.8.5,1.9,1v-.8l-.6-.5.3-.5h.6v-.9l-.3-1V337l.6-.7,1.5-.8,1.7-1H402l1.9.5Z" transform="translate(-184.3 -334)"/><path class="cls-2" d="M387,364l1.2-1.3-1.7,1.3-.7,1.4-.9,1v.7l-.9,1-.9.8h-2.8l-.7.5H379l-1.5.7h-3.7l-.7,1v1.4l-1.5.8-.9,1.5-.6.8v1l.6.8c.3.2,1.6,0,1.6,0l1.1-1.5.9-.8.5-1.2.6-1,.9-.2,2.1-.3h2.7l2-.2H385" transform="translate(-184.3 -334)"/><polyline class="cls-2" points="205 31 204.6 29.9 204 28.7"/><polyline class="cls-2" points="209.8 31.7 210.6 30.7 209.8 28.7 209.8 27 209.8 24.8 209.2 23.5"/><path class="cls-2" d="M390.1,351.7l1.2-.8h1.3l1-.3.8.6h.6v-.6l-.4-.4-.4-.2h1.1l.6.2h.3l.3-.4h-.6l-.6-.5H395v-.3h.9c.4.1.3,0,.7.3l.3.3.9-.6h-.7l-.2-.2-.3-.3h-.4l.9-.2h.6v-.3l-1.1-.2-.4.2h-.6l-.9.2h-.3s-.2-.2-.5.1l-.3.3-.6.7h-3.5c.3,0,.9-.6.9-.6l1-.5.8-.3.4-.5v-.5l-.3-.8-.6-.5-1-.8h-1.2l-.6.5" transform="translate(-184.3 -334)"/><path class="cls-2" d="M393.5,350.9l-.3,1.4v1.8l.2.8v.4l.8.4s0,.2.3,0a1.3,1.3,0,0,1,1,.1l.9-.5.9-.2s0-.4.3-.5l1.2-.5.3-.3.3-.7a12.3,12.3,0,0,1,.2-1.3v-2l-.5-.7-.5-.6-.4-.3h-.5" transform="translate(-184.3 -334)"/><path class="cls-2" d="M406.8,349.3l-1.1-.5-.4-.4-.5.9v.4l-.6.5-.3.6-.6.5-.3.5v1.6h-.4l-.5-.7-.4-.8-.5-.4v-.6l-.3-.7-.6-.5-.6-.2v.6l.3.3.3.3-.6.5h.6v.2l-.3.8h-.4a.4.4,0,0,1,.1.3l.4.2h-.2l-.2.5v.2a2.1,2.1,0,0,0,.4.6l.5.5" transform="translate(-184.3 -334)"/><path class="cls-2" d="M407,343.7h-4.9v-.6l-1.1-.6-.6-.5-.6-.5h-2.7l-.6-.3v.8l.6.5s0,.2.6.4a2,2,0,0,1,.8.8l.4.5.9.8h2l.7-.8" transform="translate(-184.3 -334)"/><path class="cls-1" d="M378.5,320.9" transform="translate(-184.3 -334)"/><polyline class="cls-2" points="221.1 7 221.5 7.7 221.8 9.7 220.8 9.7 219.5 9.7 219.7 9.1 220.7 8.6 221.5 7.7 222.6 7.7 223.4 7.7 223.4 6.8"/><text class="cls-3" transform="translate(0 46.8)"><tspan xml:space="preserve">Harry Roub   doux</tspan></text></svg>