<?xml version="1.0" standalone="no"?>
<!DOCTYPE svg PUBLIC "-//W3C//DTD SVG 20010904//EN"
 "http://www.w3.org/TR/2001/REC-SVG-20010904/DTD/svg10.dtd">
<svg version="1.0" xmlns="http://www.w3.org/2000/svg"
 width="225.000000pt" height="225.000000pt" viewBox="0 0 225.000000 225.000000"
 preserveAspectRatio="xMidYMid meet">
<metadata>
Created by potrace 1.14, written by Peter Selinger 2001-2017
</metadata>
<g transform="translate(0.000000,225.000000) scale(0.100000,-0.100000)"
fill="#000000" stroke="none">
<path d="M1116 1732 c-2 -1 -70 -7 -152 -12 -167 -10 -251 -26 -371 -71 -99
-38 -127 -61 -119 -98 4 -14 9 -111 13 -216 4 -144 2 -218 -10 -305 -9 -63
-18 -168 -22 -232 l-6 -116 33 -25 c32 -24 64 -36 203 -77 266 -78 565 -85
870 -19 28 6 89 32 136 57 l86 45 -9 34 c-13 48 -26 393 -17 456 4 29 8 86 8
127 1 41 6 123 12 183 9 82 9 110 0 121 -17 21 -158 68 -291 99 -101 23 -356
58 -364 49z m178 -452 c9 0 11 -17 8 -60 l-4 -60 30 0 c34 0 42 13 42 74 0 49
4 56 31 49 18 -5 19 -11 13 -64 l-7 -59 35 0 c32 0 36 3 42 31 3 17 6 45 6 61
0 26 3 29 28 26 29 -3 29 -6 16 -85 -5 -32 -4 -33 31 -33 l36 0 -3 -52 -3 -53
-38 1 -38 1 7 -57 c6 -55 5 -57 -19 -62 -24 -5 -25 -2 -31 54 -7 56 -8 58 -36
58 -28 0 -29 -1 -32 -57 -3 -51 -6 -58 -25 -61 -22 -3 -23 0 -23 57 l0 61 -30
0 c-30 0 -30 -1 -30 -55 0 -54 0 -55 -30 -55 -30 0 -30 1 -30 55 0 42 -4 55
-15 57 -8 0 -21 1 -27 2 -9 1 -15 -20 -18 -59 -4 -52 -8 -60 -27 -63 -20 -3
-22 1 -25 60 -3 60 -4 63 -30 66 -26 3 -28 1 -28 -31 0 -70 -10 -97 -37 -97
-24 0 -25 2 -21 63 l3 62 -30 0 c-29 0 -30 -1 -35 -60 -5 -56 -7 -60 -30 -60
-24 0 -25 2 -22 58 2 57 2 57 -27 57 -27 0 -28 -2 -34 -56 -3 -31 -7 -58 -9
-60 -2 -2 -14 0 -27 3 -22 6 -23 9 -17 65 l7 59 -33 -3 c-32 -3 -33 -5 -38
-55 -6 -61 -9 -64 -39 -56 -21 5 -23 9 -16 59 l6 54 -29 0 c-35 0 -45 18 -36
66 5 29 10 34 35 34 27 0 28 2 31 58 3 50 6 57 26 60 17 3 22 -2 23 -20 1 -13
2 -27 4 -33 1 -5 3 -22 3 -37 2 -24 6 -28 32 -28 l30 0 0 60 c0 57 1 60 25 60
24 0 25 -3 25 -60 l0 -60 30 0 30 0 0 60 c0 57 1 60 25 60 24 0 25 -3 25 -60
l0 -60 36 0 35 0 -2 58 c-3 55 -2 57 24 60 27 3 27 3 27 -57 l0 -61 30 0 30 0
0 61 c0 60 0 60 28 57 26 -3 27 -4 24 -60 l-3 -58 35 0 36 0 0 66 c0 56 2 65
16 60 9 -3 21 -6 28 -6z"/>
<path d="M260 1449 c-87 -62 -181 -179 -201 -252 -17 -62 -4 -143 33 -203 57
-95 102 -147 158 -187 l55 -38 7 88 c3 48 13 126 22 173 23 124 17 461 -8 459
-6 0 -36 -18 -66 -40z"/>
<path d="M1909 1307 c-15 -190 -18 -389 -7 -485 8 -66 10 -62 -47 -108 -28
-22 -3 -8 96 53 102 62 186 148 224 229 23 48 26 65 21 106 -13 99 -40 147
-142 256 -53 56 -104 107 -113 112 -16 8 -19 -6 -32 -163z"/>
</g>
</svg>
